<?xml version="1.0" standalone="no"?><svg xmlns="http://www.w3.org/2000/svg" viewBox="0 0 1440 320"><path fill="#5c97e0" fill-opacity="1" d="M0,160L0,320L62.6,320L62.6,0L125.2,0L125.2,224L187.8,224L187.8,96L250.4,96L250.4,288L313,288L313,96L375.7,96L375.7,256L438.3,256L438.3,128L500.9,128L500.9,128L563.5,128L563.5,160L626.1,160L626.1,256L688.7,256L688.7,256L751.3,256L751.3,320L813.9,320L813.9,224L876.5,224L876.5,128L939.1,128L939.1,288L1001.7,288L1001.7,224L1064.3,224L1064.3,128L1127,128L1127,256L1189.6,256L1189.6,192L1252.2,192L1252.2,32L1314.8,32L1314.8,96L1377.4,96L1377.4,160L1440,160L1440,320L1377.4,320L1377.4,320L1314.8,320L1314.8,320L1252.2,320L1252.2,320L1189.6,320L1189.6,320L1127,320L1127,320L1064.3,320L1064.3,320L1001.7,320L1001.7,320L939.1,320L939.1,320L876.5,320L876.5,320L813.9,320L813.9,320L751.3,320L751.3,320L688.7,320L688.7,320L626.1,320L626.1,320L563.5,320L563.5,320L500.9,320L500.9,320L438.3,320L438.3,320L375.7,320L375.7,320L313,320L313,320L250.4,320L250.4,320L187.8,320L187.8,320L125.2,320L125.2,320L62.6,320L62.6,320L0,320L0,320Z"></path></svg>